<?xml version="1.0" standalone="no"?>
<!DOCTYPE svg PUBLIC "-//W3C//DTD SVG 20010904//EN"
 "http://www.w3.org/TR/2001/REC-SVG-20010904/DTD/svg10.dtd">
<svg version="1.0" xmlns="http://www.w3.org/2000/svg"
 width="512.000000pt" height="512.000000pt" viewBox="0 0 512.000000 512.000000"
 preserveAspectRatio="xMidYMid meet">
<metadata>
Created by potrace 1.14, written by Peter Selinger 2001-2017
</metadata>
<g transform="translate(0.000000,512.000000) scale(0.100000,-0.100000)"
fill="#000000" stroke="none">
<path d="M2379 5116 c-2 -2 -38 -6 -79 -10 -64 -6 -210 -29 -315 -51 -84 -17
-325 -93 -339 -106 -6 -5 -16 -9 -24 -9 -39 0 -367 -170 -475 -246 -26 -19
-51 -34 -56 -34 -5 0 -11 -3 -13 -7 -1 -5 -39 -35 -83 -69 -128 -98 -271 -232
-367 -346 -24 -28 -48 -56 -53 -62 -27 -29 -107 -140 -157 -216 -180 -275
-304 -576 -367 -890 -38 -190 -46 -274 -45 -520 0 -183 3 -241 19 -345 3 -16
7 -43 9 -60 36 -253 165 -620 296 -840 16 -27 37 -63 46 -80 19 -35 138 -207
156 -227 7 -7 29 -34 48 -58 64 -84 197 -222 295 -307 196 -171 420 -311 685
-431 142 -64 458 -152 635 -176 156 -22 473 -29 627 -13 65 6 117 15 318 53
82 15 342 100 430 140 393 179 681 395 964 724 50 57 164 219 215 304 199 330
320 694 359 1071 11 116 7 483 -7 575 -17 109 -17 114 -31 180 -6 30 -14 66
-16 80 -18 88 -89 307 -139 425 -47 112 -220 426 -244 445 -4 3 -18 21 -31 40
-104 154 -297 359 -463 493 -245 198 -500 340 -787 439 -90 31 -289 83 -354
93 -21 3 -41 7 -45 9 -3 2 -35 7 -71 11 -36 4 -76 10 -90 12 -32 5 -446 14
-451 9z"/>
</g>
</svg>
